solid ascii
  facet normal 0.000000e+000 7.682213e-001 4.526787e-001
    outer loop
      vertex   -1.154607e+002 1.431798e+002 6.628106e-001
      vertex   -1.504254e+002 1.431798e+002 6.628106e-001
      vertex   -1.329430e+002 1.256974e+002 3.033141e+001
    endloop
  endfacet
  facet normal 0.000000e+000 7.682213e-001 4.526787e-001
    outer loop
      vertex   -1.329430e+002 1.256974e+002 3.033141e+001
      vertex   -1.504254e+002 1.431798e+002 6.628106e-001
      vertex   -1.504254e+002 1.256974e+002 3.033141e+001
    endloop
  endfacet
  facet normal 0.000000e+000 7.682213e-001 4.526787e-001
    outer loop
      vertex   -1.329430e+002 1.256974e+002 3.033141e+001
      vertex   -1.504254e+002 1.256974e+002 3.033141e+001
      vertex   -1.504254e+002 1.082150e+002 6.000000e+001
    endloop
  endfacet
  facet normal 5.551115e-017 3.900054e-001 2.298128e-001
    outer loop
      vertex   -1.504254e+002 1.082150e+002 6.000000e+001
      vertex   -1.504254e+002 1.256974e+002 3.033141e+001
      vertex   -1.679078e+002 1.256974e+002 3.033141e+001
    endloop
  endfacet
  facet normal -0.000000e+000 7.682213e-001 4.526787e-001
    outer loop
      vertex   -1.679078e+002 1.256974e+002 3.033141e+001
      vertex   -1.504254e+002 1.256974e+002 3.033141e+001
      vertex   -1.504254e+002 1.431798e+002 6.628106e-001
    endloop
  endfacet
  facet normal 0.000000e+000 6.955149e-001 4.098360e-001
    outer loop
      vertex   -1.679078e+002 1.256974e+002 3.033141e+001
      vertex   -1.504254e+002 1.431798e+002 6.628106e-001
      vertex   -1.853902e+002 1.431798e+002 6.628106e-001
    endloop
  endfacet
  facet normal 0.000000e+000 -7.682212e-001 4.526788e-001
    outer loop
      vertex   -1.327478e+002 9.053732e+001 3.000000e+001
      vertex   -1.504254e+002 1.082150e+002 6.000000e+001
      vertex   -1.504254e+002 9.053732e+001 3.000000e+001
    endloop
  endfacet
  facet normal 0.000000e+000 -8.615497e-001 5.076731e-001
    outer loop
      vertex   -1.504254e+002 9.053732e+001 3.000000e+001
      vertex   -1.504254e+002 1.082150e+002 6.000000e+001
      vertex   -1.681031e+002 9.053732e+001 3.000000e+001
    endloop
  endfacet
  facet normal 0.000000e+000 -8.615499e-001 5.076730e-001
    outer loop
      vertex   -1.504254e+002 9.053732e+001 3.000000e+001
      vertex   -1.681031e+002 9.053732e+001 3.000000e+001
      vertex   -1.504254e+002 7.285966e+001 0.000000e+000
    endloop
  endfacet
  facet normal 0.000000e+000 -7.682213e-001 4.526786e-001
    outer loop
      vertex   -1.504254e+002 7.285966e+001 0.000000e+000
      vertex   -1.681031e+002 9.053732e+001 3.000000e+001
      vertex   -1.857808e+002 7.285966e+001 0.000000e+000
    endloop
  endfacet
  facet normal 0.000000e+000 -7.682213e-001 4.526787e-001
    outer loop
      vertex   -1.150701e+002 7.285966e+001 0.000000e+000
      vertex   -1.327478e+002 9.053732e+001 3.000000e+001
      vertex   -1.504254e+002 7.285966e+001 0.000000e+000
    endloop
  endfacet
  facet normal 0.000000e+000 -3.900054e-001 2.298128e-001
    outer loop
      vertex   -1.504254e+002 7.285966e+001 0.000000e+000
      vertex   -1.327478e+002 9.053732e+001 3.000000e+001
      vertex   -1.504254e+002 9.053732e+001 3.000000e+001
    endloop
  endfacet
  facet normal 7.682213e-001 -0.000000e+000 4.526787e-001
    outer loop
      vertex   -1.150701e+002 7.285966e+001 0.000000e+000
      vertex   -1.150701e+002 1.255021e+002 0.000000e+000
      vertex   -1.327478e+002 9.053732e+001 3.000000e+001
    endloop
  endfacet
  facet normal 6.079510e-001 -0.000000e+000 3.582385e-001
    outer loop
      vertex   -1.327478e+002 9.053732e+001 3.000000e+001
      vertex   -1.150701e+002 1.255021e+002 0.000000e+000
      vertex   -1.327478e+002 1.256953e+002 3.000000e+001
    endloop
  endfacet
  facet normal 9.425065e-003 -0.000000e+000 5.553754e-003
    outer loop
      vertex   -1.327478e+002 9.053732e+001 3.000000e+001
      vertex   -1.327478e+002 1.256953e+002 3.000000e+001
      vertex   -1.329430e+002 1.256974e+002 3.033141e+001
    endloop
  endfacet
  facet normal 3.942506e-001 -1.254701e-006 2.323136e-001
    outer loop
      vertex   -1.329430e+002 1.256974e+002 3.033141e+001
      vertex   -1.327478e+002 1.256953e+002 3.000000e+001
      vertex   -1.154607e+002 1.431798e+002 6.628106e-001
    endloop
  endfacet
  facet normal 7.828052e-001 -3.830580e-008 4.612723e-001
    outer loop
      vertex   -1.154607e+002 1.431798e+002 6.628106e-001
      vertex   -1.327478e+002 1.256953e+002 3.000000e+001
      vertex   -1.150701e+002 1.255021e+002 0.000000e+000
    endloop
  endfacet
  facet normal 5.638373e-002 0.000000e+000 3.322435e-002
    outer loop
      vertex   -1.154607e+002 1.431798e+002 6.628106e-001
      vertex   -1.150701e+002 1.255021e+002 0.000000e+000
      vertex   -1.150701e+002 1.781445e+002 0.000000e+000
    endloop
  endfacet
  facet normal 3.745877e-002 0.000000e+000 2.207274e-002
    outer loop
      vertex   -1.150701e+002 2.307870e+002 0.000000e+000
      vertex   -1.154607e+002 2.131093e+002 6.628106e-001
      vertex   -1.150701e+002 1.781445e+002 0.000000e+000
    endloop
  endfacet
  facet normal 7.630307e-001 -1.859364e-008 4.496201e-001
    outer loop
      vertex   -1.150701e+002 1.781445e+002 0.000000e+000
      vertex   -1.154607e+002 2.131093e+002 6.628106e-001
      vertex   -1.329430e+002 1.956269e+002 3.033141e+001
    endloop
  endfacet
  facet normal 3.831838e-001 -1.361826e-008 2.257932e-001
    outer loop
      vertex   -1.150701e+002 1.781445e+002 0.000000e+000
      vertex   -1.329430e+002 1.956269e+002 3.033141e+001
      vertex   -1.327478e+002 1.781445e+002 3.000000e+001
    endloop
  endfacet
  facet normal 8.613413e-001 -3.476431e-008 5.075503e-001
    outer loop
      vertex   -1.327478e+002 1.781445e+002 3.000000e+001
      vertex   -1.329430e+002 1.956269e+002 3.033141e+001
      vertex   -1.504254e+002 1.781445e+002 6.000000e+001
    endloop
  endfacet
  facet normal 8.613413e-001 3.476431e-008 5.075503e-001
    outer loop
      vertex   -1.327478e+002 1.781445e+002 3.000000e+001
      vertex   -1.504254e+002 1.781445e+002 6.000000e+001
      vertex   -1.329430e+002 1.606622e+002 3.033141e+001
    endloop
  endfacet
  facet normal 7.682213e-001 0.000000e+000 4.526786e-001
    outer loop
      vertex   -1.150701e+002 2.834294e+002 0.000000e+000
      vertex   -1.327478e+002 2.657518e+002 3.000000e+001
      vertex   -1.150701e+002 2.307870e+002 0.000000e+000
    endloop
  endfacet
  facet normal 6.138247e-001 1.072915e-008 3.616996e-001
    outer loop
      vertex   -1.150701e+002 2.307870e+002 0.000000e+000
      vertex   -1.327478e+002 2.657518e+002 3.000000e+001
      vertex   -1.329430e+002 2.305917e+002 3.033141e+001
    endloop
  endfacet
  facet normal 8.605141e-001 4.103170e-008 5.070627e-001
    outer loop
      vertex   -1.150701e+002 2.307870e+002 0.000000e+000
      vertex   -1.329430e+002 2.305917e+002 3.033141e+001
      vertex   -1.154607e+002 2.131093e+002 6.628106e-001
    endloop
  endfacet
  facet normal 7.639087e-001 1.541593e-008 4.501376e-001
    outer loop
      vertex   -1.327478e+002 2.657518e+002 3.000000e+001
      vertex   -1.504254e+002 2.480741e+002 6.000000e+001
      vertex   -1.329430e+002 2.305917e+002 3.033141e+001
    endloop
  endfacet
  facet normal 8.613414e-001 3.061188e-008 5.075502e-001
    outer loop
      vertex   -1.327478e+002 1.781445e+002 3.000000e+001
      vertex   -1.329430e+002 1.606622e+002 3.033141e+001
      vertex   -1.150701e+002 1.781445e+002 0.000000e+000
    endloop
  endfacet
  facet normal 7.630307e-001 1.859364e-008 4.496201e-001
    outer loop
      vertex   -1.150701e+002 1.781445e+002 0.000000e+000
      vertex   -1.329430e+002 1.606622e+002 3.033141e+001
      vertex   -1.154607e+002 1.431798e+002 6.628106e-001
    endloop
  endfacet
  facet normal 7.724418e-001 -1.558814e-008 4.551658e-001
    outer loop
      vertex   -1.329430e+002 1.256974e+002 3.033141e+001
      vertex   -1.504254e+002 1.082150e+002 6.000000e+001
      vertex   -1.327478e+002 9.053732e+001 3.000000e+001
    endloop
  endfacet
  facet normal -6.909830e-001 2.122622e-008 4.071654e-001
    outer loop
      vertex   -1.679078e+002 1.606622e+002 3.033141e+001
      vertex   -1.857808e+002 1.781445e+002 0.000000e+000
      vertex   -1.853902e+002 1.431798e+002 6.628106e-001
    endloop
  endfacet
  facet normal -5.638373e-002 0.000000e+000 3.322435e-002
    outer loop
      vertex   -1.853902e+002 1.431798e+002 6.628106e-001
      vertex   -1.857808e+002 1.781445e+002 0.000000e+000
      vertex   -1.857808e+002 1.255021e+002 0.000000e+000
    endloop
  endfacet
  facet normal -7.828053e-001 -3.083973e-008 4.612721e-001
    outer loop
      vertex   -1.853902e+002 1.431798e+002 6.628106e-001
      vertex   -1.857808e+002 1.255021e+002 0.000000e+000
      vertex   -1.681031e+002 1.256953e+002 3.000000e+001
    endloop
  endfacet
  facet normal -8.615367e-001 0.000000e+000 5.076650e-001
    outer loop
      vertex   -1.681031e+002 1.256953e+002 3.000000e+001
      vertex   -1.857808e+002 1.255021e+002 0.000000e+000
      vertex   -1.681031e+002 9.053732e+001 3.000000e+001
    endloop
  endfacet
  facet normal -8.615373e-001 0.000000e+000 5.076640e-001
    outer loop
      vertex   -1.681031e+002 1.256953e+002 3.000000e+001
      vertex   -1.681031e+002 9.053732e+001 3.000000e+001
      vertex   -1.679078e+002 1.256974e+002 3.033141e+001
    endloop
  endfacet
  facet normal -7.724418e-001 -1.558814e-008 4.551658e-001
    outer loop
      vertex   -1.679078e+002 1.256974e+002 3.033141e+001
      vertex   -1.681031e+002 9.053732e+001 3.000000e+001
      vertex   -1.504254e+002 1.082150e+002 6.000000e+001
    endloop
  endfacet
  facet normal -3.831838e-001 1.177098e-008 2.257931e-001
    outer loop
      vertex   -1.857808e+002 1.781445e+002 0.000000e+000
      vertex   -1.679078e+002 1.606622e+002 3.033141e+001
      vertex   -1.681031e+002 1.781445e+002 3.000000e+001
    endloop
  endfacet
  facet normal -8.613413e-001 3.476431e-008 5.075503e-001
    outer loop
      vertex   -1.681031e+002 1.781445e+002 3.000000e+001
      vertex   -1.679078e+002 1.606622e+002 3.033141e+001
      vertex   -1.504254e+002 1.781445e+002 6.000000e+001
    endloop
  endfacet
  facet normal -8.613413e-001 -3.476431e-008 5.075503e-001
    outer loop
      vertex   -1.681031e+002 1.781445e+002 3.000000e+001
      vertex   -1.504254e+002 1.781445e+002 6.000000e+001
      vertex   -1.679078e+002 1.956269e+002 3.033141e+001
    endloop
  endfacet
  facet normal -8.613415e-001 -2.645944e-008 5.075500e-001
    outer loop
      vertex   -1.681031e+002 1.781445e+002 3.000000e+001
      vertex   -1.679078e+002 1.956269e+002 3.033141e+001
      vertex   -1.857808e+002 1.781445e+002 0.000000e+000
    endloop
  endfacet
  facet normal -7.630308e-001 -1.491515e-008 4.496199e-001
    outer loop
      vertex   -1.857808e+002 1.781445e+002 0.000000e+000
      vertex   -1.679078e+002 1.956269e+002 3.033141e+001
      vertex   -1.853902e+002 2.131093e+002 6.628106e-001
    endloop
  endfacet
  facet normal -1.895194e-002 0.000000e+000 1.116751e-002
    outer loop
      vertex   -1.857808e+002 1.781445e+002 0.000000e+000
      vertex   -1.853902e+002 2.131093e+002 6.628106e-001
      vertex   -1.857808e+002 2.307870e+002 0.000000e+000
    endloop
  endfacet
  facet normal -8.605142e-001 3.291416e-008 5.070625e-001
    outer loop
      vertex   -1.857808e+002 2.307870e+002 0.000000e+000
      vertex   -1.853902e+002 2.131093e+002 6.628106e-001
      vertex   -1.679078e+002 2.305917e+002 3.033141e+001
    endloop
  endfacet
  facet normal -6.138248e-001 9.273763e-009 3.616995e-001
    outer loop
      vertex   -1.857808e+002 2.307870e+002 0.000000e+000
      vertex   -1.679078e+002 2.305917e+002 3.033141e+001
      vertex   -1.681031e+002 2.657518e+002 3.000000e+001
    endloop
  endfacet
  facet normal -7.639087e-001 1.541593e-008 4.501376e-001
    outer loop
      vertex   -1.681031e+002 2.657518e+002 3.000000e+001
      vertex   -1.679078e+002 2.305917e+002 3.033141e+001
      vertex   -1.504254e+002 2.480741e+002 6.000000e+001
    endloop
  endfacet
  facet normal -8.195394e-001 5.551115e-017 4.829179e-001
    outer loop
      vertex   -1.681031e+002 2.657518e+002 3.000000e+001
      vertex   -1.857808e+002 2.834294e+002 0.000000e+000
      vertex   -1.857808e+002 2.307870e+002 0.000000e+000
    endloop
  endfacet
  facet normal -6.079511e-001 0.000000e+000 3.582384e-001
    outer loop
      vertex   -1.857808e+002 1.255021e+002 0.000000e+000
      vertex   -1.857808e+002 7.285966e+001 0.000000e+000
      vertex   -1.681031e+002 9.053732e+001 3.000000e+001
    endloop
  endfacet
  facet normal -3.942507e-001 -1.084504e-006 2.323136e-001
    outer loop
      vertex   -1.679078e+002 1.256974e+002 3.033141e+001
      vertex   -1.853902e+002 1.431798e+002 6.628106e-001
      vertex   -1.681031e+002 1.256953e+002 3.000000e+001
    endloop
  endfacet
  facet normal 0.000000e+000 7.682214e-001 4.526785e-001
    outer loop
      vertex   -1.154607e+002 2.131093e+002 6.628106e-001
      vertex   -1.504254e+002 2.131093e+002 6.628106e-001
      vertex   -1.329430e+002 1.956269e+002 3.033141e+001
    endloop
  endfacet
  facet normal 0.000000e+000 7.682213e-001 4.526785e-001
    outer loop
      vertex   -1.329430e+002 1.956269e+002 3.033141e+001
      vertex   -1.504254e+002 2.131093e+002 6.628106e-001
      vertex   -1.504254e+002 1.956269e+002 3.033141e+001
    endloop
  endfacet
  facet normal 0.000000e+000 7.682212e-001 4.526788e-001
    outer loop
      vertex   -1.329430e+002 1.956269e+002 3.033141e+001
      vertex   -1.504254e+002 1.956269e+002 3.033141e+001
      vertex   -1.504254e+002 1.781445e+002 6.000000e+001
    endloop
  endfacet
  facet normal 0.000000e+000 3.900053e-001 2.298129e-001
    outer loop
      vertex   -1.504254e+002 1.781445e+002 6.000000e+001
      vertex   -1.504254e+002 1.956269e+002 3.033141e+001
      vertex   -1.679078e+002 1.956269e+002 3.033141e+001
    endloop
  endfacet
  facet normal -0.000000e+000 7.682213e-001 4.526785e-001
    outer loop
      vertex   -1.679078e+002 1.956269e+002 3.033141e+001
      vertex   -1.504254e+002 1.956269e+002 3.033141e+001
      vertex   -1.504254e+002 2.131093e+002 6.628106e-001
    endloop
  endfacet
  facet normal -5.551115e-017 6.955150e-001 4.098359e-001
    outer loop
      vertex   -1.679078e+002 1.956269e+002 3.033141e+001
      vertex   -1.504254e+002 2.131093e+002 6.628106e-001
      vertex   -1.853902e+002 2.131093e+002 6.628106e-001
    endloop
  endfacet
  facet normal 0.000000e+000 -7.682213e-001 4.526789e-001
    outer loop
      vertex   -1.853902e+002 1.431798e+002 6.628106e-001
      vertex   -1.504254e+002 1.431798e+002 6.628106e-001
      vertex   -1.679078e+002 1.606622e+002 3.033141e+001
    endloop
  endfacet
  facet normal 0.000000e+000 -7.682212e-001 4.526788e-001
    outer loop
      vertex   -1.679078e+002 1.606622e+002 3.033141e+001
      vertex   -1.504254e+002 1.431798e+002 6.628106e-001
      vertex   -1.504254e+002 1.606622e+002 3.033141e+001
    endloop
  endfacet
  facet normal 0.000000e+000 -7.682212e-001 4.526788e-001
    outer loop
      vertex   -1.679078e+002 1.606622e+002 3.033141e+001
      vertex   -1.504254e+002 1.606622e+002 3.033141e+001
      vertex   -1.504254e+002 1.781445e+002 6.000000e+001
    endloop
  endfacet
  facet normal 0.000000e+000 -3.900053e-001 2.298129e-001
    outer loop
      vertex   -1.504254e+002 1.781445e+002 6.000000e+001
      vertex   -1.504254e+002 1.606622e+002 3.033141e+001
      vertex   -1.329430e+002 1.606622e+002 3.033141e+001
    endloop
  endfacet
  facet normal 0.000000e+000 -7.682212e-001 4.526788e-001
    outer loop
      vertex   -1.329430e+002 1.606622e+002 3.033141e+001
      vertex   -1.504254e+002 1.606622e+002 3.033141e+001
      vertex   -1.504254e+002 1.431798e+002 6.628106e-001
    endloop
  endfacet
  facet normal -5.551115e-017 -6.955148e-001 4.098361e-001
    outer loop
      vertex   -1.329430e+002 1.606622e+002 3.033141e+001
      vertex   -1.504254e+002 1.431798e+002 6.628106e-001
      vertex   -1.154607e+002 1.431798e+002 6.628106e-001
    endloop
  endfacet
  facet normal 0.000000e+000 0.000000e+000 -1.000000e+000
    outer loop
      vertex   -1.504254e+002 7.285966e+001 0.000000e+000
      vertex   -1.857808e+002 7.285966e+001 0.000000e+000
      vertex   -1.504254e+002 1.255021e+002 0.000000e+000
    endloop
  endfacet
  facet normal -0.000000e+000 0.000000e+000 -8.301504e-001
    outer loop
      vertex   -1.504254e+002 1.255021e+002 0.000000e+000
      vertex   -1.857808e+002 7.285966e+001 0.000000e+000
      vertex   -1.857808e+002 1.255021e+002 0.000000e+000
    endloop
  endfacet
  facet normal 0.000000e+000 0.000000e+000 -1.000000e+000
    outer loop
      vertex   -1.504254e+002 1.255021e+002 0.000000e+000
      vertex   -1.857808e+002 1.255021e+002 0.000000e+000
      vertex   -1.504254e+002 1.781445e+002 0.000000e+000
    endloop
  endfacet
  facet normal -0.000000e+000 0.000000e+000 -8.301504e-001
    outer loop
      vertex   -1.504254e+002 1.781445e+002 0.000000e+000
      vertex   -1.857808e+002 1.255021e+002 0.000000e+000
      vertex   -1.857808e+002 1.781445e+002 0.000000e+000
    endloop
  endfacet
  facet normal 0.000000e+000 0.000000e+000 -1.000000e+000
    outer loop
      vertex   -1.504254e+002 1.781445e+002 0.000000e+000
      vertex   -1.857808e+002 1.781445e+002 0.000000e+000
      vertex   -1.504254e+002 2.307870e+002 0.000000e+000
    endloop
  endfacet
  facet normal -0.000000e+000 0.000000e+000 -8.301504e-001
    outer loop
      vertex   -1.504254e+002 2.307870e+002 0.000000e+000
      vertex   -1.857808e+002 1.781445e+002 0.000000e+000
      vertex   -1.857808e+002 2.307870e+002 0.000000e+000
    endloop
  endfacet
  facet normal 0.000000e+000 0.000000e+000 -1.000000e+000
    outer loop
      vertex   -1.504254e+002 2.307870e+002 0.000000e+000
      vertex   -1.857808e+002 2.307870e+002 0.000000e+000
      vertex   -1.504254e+002 2.834294e+002 0.000000e+000
    endloop
  endfacet
  facet normal -0.000000e+000 0.000000e+000 -8.301505e-001
    outer loop
      vertex   -1.504254e+002 2.834294e+002 0.000000e+000
      vertex   -1.857808e+002 2.307870e+002 0.000000e+000
      vertex   -1.857808e+002 2.834294e+002 0.000000e+000
    endloop
  endfacet
  facet normal 0.000000e+000 0.000000e+000 -1.000000e+000
    outer loop
      vertex   -1.504254e+002 2.834294e+002 0.000000e+000
      vertex   -1.150701e+002 2.834294e+002 0.000000e+000
      vertex   -1.504254e+002 2.307870e+002 0.000000e+000
    endloop
  endfacet
  facet normal 0.000000e+000 0.000000e+000 -8.301504e-001
    outer loop
      vertex   -1.504254e+002 2.307870e+002 0.000000e+000
      vertex   -1.150701e+002 2.834294e+002 0.000000e+000
      vertex   -1.150701e+002 2.307870e+002 0.000000e+000
    endloop
  endfacet
  facet normal 0.000000e+000 0.000000e+000 -1.000000e+000
    outer loop
      vertex   -1.504254e+002 2.307870e+002 0.000000e+000
      vertex   -1.150701e+002 2.307870e+002 0.000000e+000
      vertex   -1.504254e+002 1.781445e+002 0.000000e+000
    endloop
  endfacet
  facet normal 0.000000e+000 0.000000e+000 -8.301503e-001
    outer loop
      vertex   -1.504254e+002 1.781445e+002 0.000000e+000
      vertex   -1.150701e+002 2.307870e+002 0.000000e+000
      vertex   -1.150701e+002 1.781445e+002 0.000000e+000
    endloop
  endfacet
  facet normal 0.000000e+000 0.000000e+000 -1.000000e+000
    outer loop
      vertex   -1.504254e+002 1.781445e+002 0.000000e+000
      vertex   -1.150701e+002 1.781445e+002 0.000000e+000
      vertex   -1.504254e+002 1.255021e+002 0.000000e+000
    endloop
  endfacet
  facet normal 0.000000e+000 0.000000e+000 -8.301504e-001
    outer loop
      vertex   -1.504254e+002 1.255021e+002 0.000000e+000
      vertex   -1.150701e+002 1.781445e+002 0.000000e+000
      vertex   -1.150701e+002 1.255021e+002 0.000000e+000
    endloop
  endfacet
  facet normal 0.000000e+000 0.000000e+000 -1.000000e+000
    outer loop
      vertex   -1.504254e+002 1.255021e+002 0.000000e+000
      vertex   -1.150701e+002 1.255021e+002 0.000000e+000
      vertex   -1.504254e+002 7.285966e+001 0.000000e+000
    endloop
  endfacet
  facet normal 0.000000e+000 0.000000e+000 -8.301503e-001
    outer loop
      vertex   -1.504254e+002 7.285966e+001 0.000000e+000
      vertex   -1.150701e+002 1.255021e+002 0.000000e+000
      vertex   -1.150701e+002 7.285966e+001 0.000000e+000
    endloop
  endfacet
  facet normal 0.000000e+000 -7.682213e-001 4.526789e-001
    outer loop
      vertex   -1.853902e+002 2.131093e+002 6.628106e-001
      vertex   -1.504254e+002 2.131093e+002 6.628106e-001
      vertex   -1.679078e+002 2.305917e+002 3.033141e+001
    endloop
  endfacet
  facet normal 0.000000e+000 -7.682212e-001 4.526788e-001
    outer loop
      vertex   -1.679078e+002 2.305917e+002 3.033141e+001
      vertex   -1.504254e+002 2.131093e+002 6.628106e-001
      vertex   -1.504254e+002 2.305917e+002 3.033141e+001
    endloop
  endfacet
  facet normal 0.000000e+000 -7.682212e-001 4.526788e-001
    outer loop
      vertex   -1.679078e+002 2.305917e+002 3.033141e+001
      vertex   -1.504254e+002 2.305917e+002 3.033141e+001
      vertex   -1.504254e+002 2.480741e+002 6.000000e+001
    endloop
  endfacet
  facet normal 0.000000e+000 -3.900053e-001 2.298129e-001
    outer loop
      vertex   -1.504254e+002 2.480741e+002 6.000000e+001
      vertex   -1.504254e+002 2.305917e+002 3.033141e+001
      vertex   -1.329430e+002 2.305917e+002 3.033141e+001
    endloop
  endfacet
  facet normal 0.000000e+000 -7.682212e-001 4.526788e-001
    outer loop
      vertex   -1.329430e+002 2.305917e+002 3.033141e+001
      vertex   -1.504254e+002 2.305917e+002 3.033141e+001
      vertex   -1.504254e+002 2.131093e+002 6.628106e-001
    endloop
  endfacet
  facet normal -5.551115e-017 -6.955148e-001 4.098361e-001
    outer loop
      vertex   -1.329430e+002 2.305917e+002 3.033141e+001
      vertex   -1.504254e+002 2.131093e+002 6.628106e-001
      vertex   -1.154607e+002 2.131093e+002 6.628106e-001
    endloop
  endfacet
  facet normal -0.000000e+000 7.682212e-001 4.526788e-001
    outer loop
      vertex   -1.681031e+002 2.657518e+002 3.000000e+001
      vertex   -1.504254e+002 2.480741e+002 6.000000e+001
      vertex   -1.504254e+002 2.657518e+002 3.000000e+001
    endloop
  endfacet
  facet normal -0.000000e+000 8.615497e-001 5.076731e-001
    outer loop
      vertex   -1.504254e+002 2.657518e+002 3.000000e+001
      vertex   -1.504254e+002 2.480741e+002 6.000000e+001
      vertex   -1.327478e+002 2.657518e+002 3.000000e+001
    endloop
  endfacet
  facet normal -0.000000e+000 8.615497e-001 5.076731e-001
    outer loop
      vertex   -1.504254e+002 2.657518e+002 3.000000e+001
      vertex   -1.327478e+002 2.657518e+002 3.000000e+001
      vertex   -1.504254e+002 2.834294e+002 0.000000e+000
    endloop
  endfacet
  facet normal -0.000000e+000 7.682212e-001 4.526788e-001
    outer loop
      vertex   -1.504254e+002 2.834294e+002 0.000000e+000
      vertex   -1.327478e+002 2.657518e+002 3.000000e+001
      vertex   -1.150701e+002 2.834294e+002 0.000000e+000
    endloop
  endfacet
  facet normal -0.000000e+000 7.682213e-001 4.526789e-001
    outer loop
      vertex   -1.857808e+002 2.834294e+002 0.000000e+000
      vertex   -1.681031e+002 2.657518e+002 3.000000e+001
      vertex   -1.504254e+002 2.834294e+002 0.000000e+000
    endloop
  endfacet
  facet normal -5.551115e-017 3.900053e-001 2.298129e-001
    outer loop
      vertex   -1.504254e+002 2.834294e+002 0.000000e+000
      vertex   -1.681031e+002 2.657518e+002 3.000000e+001
      vertex   -1.504254e+002 2.657518e+002 3.000000e+001
    endloop
  endfacet
endsolid
